<?xml version="1.0" encoding="UTF-8" standalone="no"?>
<!DOCTYPE svg PUBLIC "-//W3C//DTD SVG 1.1//EN" "http://www.w3.org/Graphics/SVG/1.1/DTD/svg11.dtd">
<svg version="1.1" xmlns="http://www.w3.org/2000/svg" xmlns:xlink="http://www.w3.org/1999/xlink" preserveAspectRatio="xMidYMid meet" viewBox="0 0 500 500" width="500" height="500"><defs><path d="M214.14 302.91C206.52 292.37 145.54 208.06 137.91 197.52C135.58 194.29 135.93 189.83 138.76 186.99C141.59 184.17 146.05 183.82 149.29 186.15C159.83 193.77 244.15 254.78 254.69 262.4C261.56 267.4 265.89 275.13 266.55 283.61C267.21 292.08 264.14 300.38 258.14 306.38C252.67 311.85 245.3 314.88 237.64 314.88C236.89 314.88 236.13 314.85 235.36 314.79C226.89 314.13 219.16 309.81 214.14 302.91ZM245.12 275.58C240.84 272.48 219.41 256.97 180.83 229.06C208.73 267.63 224.23 289.06 227.33 293.34C229.52 296.36 232.92 298.26 236.64 298.55C240.35 298.8 243.98 297.51 246.63 294.87C249.25 292.24 250.6 288.59 250.31 284.88C250.03 281.15 248.12 277.76 245.12 275.58Z" id="a1DCzGXjbR"></path><path d="M53.16 164.25C53.25 164.09 53.41 164 53.51 163.85C61.74 149.73 71.48 136.6 82.54 124.69C81.37 123.53 75.54 117.7 65.05 107.21L53.54 118.72L19 84.18L53.54 49.64L88.08 84.18L76.56 95.7C87.06 106.19 92.89 112.01 94.05 113.18C105.96 102.12 119.08 92.38 133.21 84.15C133.36 84.04 133.45 83.88 133.61 83.79C133.78 83.69 133.96 83.7 134.13 83.61C159.32 69.1 187.61 59.43 217.78 55.89C217.78 55.25 217.78 52.01 217.78 46.2C210.45 46.2 206.38 46.2 205.56 46.2C194.34 46.2 185.21 37.07 185.21 25.84C185.21 14.61 194.34 5.49 205.57 5.49C212.9 5.49 271.52 5.49 278.85 5.49C290.08 5.49 299.2 14.61 299.2 25.84C299.2 37.07 290.08 46.2 278.85 46.2C278.03 46.2 273.96 46.2 266.64 46.2C266.64 51.84 266.64 54.98 266.64 55.61C275.43 56.54 284.21 57.98 292.89 59.96C297.27 60.97 300.01 65.34 299 69.72C298 74.1 293.63 76.85 289.25 75.83C281.76 74.11 274.19 72.82 266.61 71.95C265.74 71.88 258.75 71.34 257.87 71.27C255.2 71.07 252.75 70.92 250.35 70.81C250.35 72.42 250.35 85.3 250.35 86.91C250.35 91.41 246.71 95.05 242.21 95.05C237.71 95.05 234.07 91.41 234.07 86.91C234.07 85.3 234.07 72.47 234.07 70.87C203.45 72.27 174.59 80.5 148.94 94.03C149.74 95.42 156.16 106.54 156.96 107.93C159.21 111.83 157.88 116.8 153.98 119.05C152.71 119.79 151.31 120.14 149.92 120.14C147.1 120.14 144.37 118.68 142.86 116.07C142.06 114.68 135.66 103.59 134.86 102.2C109.38 118.37 87.74 140.01 71.58 165.48C72.97 166.28 84.06 172.69 85.45 173.49C89.33 175.73 90.66 180.71 88.41 184.61C86.9 187.22 84.17 188.68 81.35 188.68C79.97 188.68 78.57 188.33 77.29 187.59C75.9 186.79 64.78 180.36 63.39 179.56C49.67 205.58 41.42 234.91 40.19 266.02C41.8 266.02 54.67 266.02 56.27 266.02C60.78 266.02 64.42 269.66 64.42 274.16C64.42 278.66 60.78 282.3 56.27 282.3C54.67 282.3 41.8 282.3 40.19 282.3C41.42 313.41 49.67 342.74 63.39 368.76C64.78 367.96 75.9 361.54 77.29 360.73C81.18 358.49 86.16 359.81 88.41 363.71C90.66 367.61 89.32 372.59 85.43 374.84C84.04 375.64 72.95 382.04 71.56 382.84C87.73 408.31 109.37 429.96 134.84 446.12C135.64 444.73 142.05 433.64 142.85 432.25C145.1 428.34 150.09 427.02 153.97 429.27C157.87 431.52 159.2 436.5 156.95 440.39C156.15 441.78 149.72 452.9 148.92 454.29C174.58 467.82 203.43 476.05 234.05 477.46C234.05 475.85 234.05 463.03 234.05 461.43C234.05 456.93 237.69 453.29 242.19 453.29C246.7 453.29 250.34 456.93 250.34 461.43C250.34 463.04 250.34 475.91 250.34 477.52C263.34 477.07 276.38 475.44 289.22 472.5C293.6 471.45 297.97 474.23 298.98 478.61C299.98 482.99 297.24 487.36 292.86 488.37C276.61 492.11 260.01 494 243.54 494C243.14 494 242.76 493.98 242.36 493.97C242.3 493.97 242.26 494 242.21 494C242.14 494 242.09 493.96 242.02 493.96C202.88 493.69 166.16 483.12 134.4 464.87C134.14 464.75 133.87 464.7 133.63 464.55C133.47 464.45 133.38 464.3 133.22 464.19C100.34 445.03 72.86 417.58 53.65 384.72C53.5 384.5 53.3 384.33 53.16 384.08C53.07 383.91 53.07 383.73 52.99 383.56C34.4 351.32 23.71 313.98 23.71 274.17C23.71 234.36 34.4 197.02 52.98 164.77C53.07 164.6 53.07 164.42 53.16 164.25ZM42.03 84.18L53.55 95.7L65.07 84.18L53.55 72.67L42.03 84.18ZM250.35 29.91C267.45 29.91 276.95 29.91 278.85 29.91C281.09 29.91 282.92 28.08 282.92 25.84C282.92 23.6 281.09 21.77 278.85 21.77C271.52 21.77 212.9 21.77 205.57 21.77C203.33 21.77 201.5 23.6 201.5 25.84C201.5 28.08 203.33 29.91 205.57 29.91C207.47 29.91 216.97 29.91 234.07 29.91C234.07 44.67 234.07 52.87 234.07 54.51C236.9 54.39 239.6 54.34 242.21 54.34C242.44 54.34 242.7 54.35 242.93 54.35C243.13 54.35 243.33 54.34 243.54 54.34C244.87 54.34 246.21 54.43 247.54 54.45C248.49 54.48 249.37 54.47 250.35 54.51C250.35 51.23 250.35 43.03 250.35 29.91Z" id="a5IwgtP57"></path><path d="M356.2 119.47C360.7 119.47 364.34 123.11 364.34 127.61C364.34 132.12 360.7 135.76 356.2 135.76C352.13 135.76 319.56 135.76 315.49 135.76C310.98 135.76 307.35 132.12 307.35 127.61C307.35 123.11 310.98 119.47 315.49 119.47C323.63 119.47 352.13 119.47 356.2 119.47Z" id="m1zhbauMcw"></path><path d="M396.91 176.47C401.41 176.47 405.05 180.11 405.05 184.61C405.05 189.11 401.41 192.75 396.91 192.75C388.76 192.75 323.63 192.75 315.49 192.75C310.98 192.75 307.35 189.11 307.35 184.61C307.35 180.11 310.98 176.47 315.49 176.47C331.77 176.47 388.76 176.47 396.91 176.47Z" id="g4eWXtVc95"></path><path d="M437.62 233.46C442.12 233.46 445.76 237.1 445.76 241.6C445.76 246.1 442.12 249.74 437.62 249.74C425.4 249.74 327.7 249.74 315.49 249.74C310.98 249.74 307.35 246.1 307.35 241.6C307.35 237.1 310.98 233.46 315.49 233.46C339.91 233.46 425.4 233.46 437.62 233.46Z" id="c18wlOueu"></path><path d="M470.18 290.45C474.69 290.45 478.32 294.09 478.32 298.59C478.32 303.1 474.69 306.74 470.18 306.74C454.71 306.74 330.96 306.74 315.49 306.74C310.98 306.74 307.35 303.1 307.35 298.59C307.35 294.09 310.98 290.45 315.49 290.45C346.43 290.45 454.71 290.45 470.18 290.45Z" id="a57I0Qqojy"></path><path d="M421.33 347.45C425.83 347.45 429.47 351.09 429.47 355.59C429.47 360.09 425.83 363.73 421.33 363.73C410.75 363.73 326.07 363.73 315.49 363.73C310.98 363.73 307.35 360.09 307.35 355.59C307.35 351.09 310.98 347.45 315.49 347.45C336.66 347.45 410.75 347.45 421.33 347.45Z" id="f1dIuJRaXJ"></path><path d="M372.48 404.44C376.98 404.44 380.62 408.08 380.62 412.58C380.62 417.08 376.98 420.72 372.48 420.72C366.78 420.72 321.19 420.72 315.49 420.72C310.98 420.72 307.35 417.08 307.35 412.58C307.35 408.08 310.98 404.44 315.49 404.44C326.89 404.44 366.78 404.44 372.48 404.44Z" id="e9pmVKp80"></path></defs><g><g><g><use xlink:href="#a1DCzGXjbR" opacity="1" fill="#ffffff" fill-opacity="1"></use><g><use xlink:href="#a1DCzGXjbR" opacity="1" fill-opacity="0" stroke="#ffffff" stroke-width="1" stroke-opacity="0"></use></g></g><g><use xlink:href="#a5IwgtP57" opacity="1" fill="#ffffff" fill-opacity="1"></use><g><use xlink:href="#a5IwgtP57" opacity="1" fill-opacity="0" stroke="#ffffff" stroke-width="1" stroke-opacity="0"></use></g></g><g><use xlink:href="#m1zhbauMcw" opacity="1" fill="#ffffff" fill-opacity="1"></use><g><use xlink:href="#m1zhbauMcw" opacity="1" fill-opacity="0" stroke="#ffffff" stroke-width="1" stroke-opacity="0"></use></g></g><g><use xlink:href="#g4eWXtVc95" opacity="1" fill="#ffffff" fill-opacity="1"></use><g><use xlink:href="#g4eWXtVc95" opacity="1" fill-opacity="0" stroke="#ffffff" stroke-width="1" stroke-opacity="0"></use></g></g><g><use xlink:href="#c18wlOueu" opacity="1" fill="#ffffff" fill-opacity="1"></use><g><use xlink:href="#c18wlOueu" opacity="1" fill-opacity="0" stroke="#ffffff" stroke-width="1" stroke-opacity="0"></use></g></g><g><use xlink:href="#a57I0Qqojy" opacity="1" fill="#ffffff" fill-opacity="1"></use><g><use xlink:href="#a57I0Qqojy" opacity="1" fill-opacity="0" stroke="#ffffff" stroke-width="1" stroke-opacity="0"></use></g></g><g><use xlink:href="#f1dIuJRaXJ" opacity="1" fill="#ffffff" fill-opacity="1"></use><g><use xlink:href="#f1dIuJRaXJ" opacity="1" fill-opacity="0" stroke="#ffffff" stroke-width="1" stroke-opacity="0"></use></g></g><g><use xlink:href="#e9pmVKp80" opacity="1" fill="#ffffff" fill-opacity="1"></use><g><use xlink:href="#e9pmVKp80" opacity="1" fill-opacity="0" stroke="#ffffff" stroke-width="1" stroke-opacity="0"></use></g></g></g></g></svg>