<svg enable-background="new 0 0 24 24" height="512" viewBox="0 0 24 24" width="512" xmlns="http://www.w3.org/2000/svg"><path d="m12 23.25c-6.204 0-11.25-5.046-11.25-11.25s5.046-11.25 11.25-11.25 11.25 5.046 11.25 11.25-5.046 11.25-11.25 11.25z" fill="#2196f3"/><path d="m12 3c-4.962 0-9 4.037-9 9 0 .414.336.75.75.75h8.25c.414 0 .75-.336.75-.75v-8.25c0-.414-.336-.75-.75-.75z" fill="#fafafa"/><path d="m12 24c-6.617 0-12-5.383-12-12s5.383-12 12-12 12 5.383 12 12-5.383 12-12 12zm0-22.5c-5.79 0-10.5 4.71-10.5 10.5s4.71 10.5 10.5 10.5 10.5-4.71 10.5-10.5-4.71-10.5-10.5-10.5z"/><path d="m12 12.75h-8.25c-.414 0-.75-.336-.75-.75 0-4.962 4.038-9 9-9 .414 0 .75.336.75.75v8.25c0 .414-.336.75-.75.75zm-7.463-1.5h6.713v-6.713c-3.538.353-6.36 3.175-6.713 6.713z"/></svg>